<?xml version="1.0" encoding="utf-8"?>
<!-- Generator: Adobe Illustrator 16.0.0, SVG Export Plug-In . SVG Version: 6.00 Build 0)  -->
<!DOCTYPE svg PUBLIC "-//W3C//DTD SVG 1.1//EN" "http://www.w3.org/Graphics/SVG/1.1/DTD/svg11.dtd">
<svg version="1.1" xmlns="http://www.w3.org/2000/svg" xmlns:xlink="http://www.w3.org/1999/xlink" x="0px" y="0px" width="306px"
	 height="306px" viewBox="0 0 306 306" enable-background="new 0 0 306 306" xml:space="preserve">
<g id="Layer_1">
</g>
<g id="Layer_4">
	<path fill="#010101" d="M230.414,243.351c0,14.498-33.336,26.25-75.172,26.25c-41.834,0-75.749-11.752-75.749-26.25
		c0-14.496,33.914-26.248,75.749-26.248C197.078,217.103,230.414,228.854,230.414,243.351z"/>
	<g>
		<path fill="#010101" d="M169.068,269.163c0-5.039,0-10.139,0-13.836c0-8.895,6.236-11.602,6.236-14.891
			c0-5.656-11.381,0.537-14.889,4.061c-5.342,5.367-4.738,7.469-4.609,16.463c0.033,2.326,0.044,5.396,0.039,8.641
			C160.365,269.587,164.783,269.438,169.068,269.163z"/>
		<path fill="#010101" d="M134.333,268.589c-0.028-7.639-0.069-17.943-0.069-21.988c0-7.758-11.022-12.182-16.315-12.182
			c-2.683,0-6.019,0.139-6.019,1.557c0,3.592,10.079,5.695,10.079,13.164c0,4.111-0.059,12.34-0.102,17.791
			C125.868,267.603,130.021,268.161,134.333,268.589z"/>
		<path fill="#010101" d="M185.988,248.847c0.098-7.057,10.441-10.439,10.055-12.713c-0.387-2.271-8.66-1.9-12.521-0.555
			c-10.957,3.82-9.859,12.932-9.859,12.932l-0.295,20.332c4.438-0.381,8.719-0.895,12.801-1.537
			C186.115,254.921,185.937,252.536,185.988,248.847z"/>
		<path fill="#010101" d="M150.186,248.778c-4.394-9.719-17.663-13.053-17.663-8.631c0,2.973,2.683,2.031,4.495,8.701
			c0.731,2.691,1.127,11.541,1.343,20.1c4.537,0.357,9.23,0.572,14.038,0.635C152.289,261.126,151.764,252.29,150.186,248.778z"/>
	</g>
	<path fill="#010101" d="M68.762,176.255c-4.671,0-0.021-7.336,0-10.635C68.841,169.009,73.433,176.255,68.762,176.255z"/>
</g>
<g id="mainBody">
	<g id="XMLID_2_">
		<g>
			<path fill="#010101" d="M288.193,132.131c0.47,0.093,0.783,0.545,0.696,1.015c-0.075,0.418-0.446,0.714-0.853,0.714
				c-0.053,0-0.11-0.006-0.162-0.012c-11.863-2.193-29.127-4.606-58.606-4.333c-0.517,1.711-1.097,3.341-1.729,4.896
				c10.035,0.336,37.595,1.41,60.067,8.284c0.465,0.139,0.72,0.626,0.58,1.091c-0.115,0.371-0.458,0.615-0.829,0.615
				c-0.087,0-0.174-0.012-0.255-0.041c-22.786-6.967-50.943-7.924-60.307-8.231c-7.263,15.947-21.318,22.989-43.402,26.301
				l-0.823-5.743c21.782-3.26,30.536-15.871,30.536-33.268c0-12.762-5.935-29.294-29.295-29.294c-1.711,0-15.048,1.45-28.233,1.45
				c-14.85,0-30.228-1.45-32.583-1.45c-23.784,0-29.677,19.027-29.677,27.746c0,23.024,16.144,33.303,38.877,35.292l-0.632,6.353
				c-27.026-2.738-43.095-12.246-51.465-27.444c-28.738,0.69-45.05,4.769-57.005,7.756c-0.87,0.22-1.717,0.429-2.541,0.638
				c-0.069,0.017-0.139,0.023-0.208,0.023c-0.395,0-0.749-0.267-0.847-0.661c-0.116-0.464,0.174-0.94,0.638-1.056
				c0.824-0.203,1.67-0.412,2.535-0.632c11.92-2.976,28.128-7.031,56.523-7.785c-0.783-1.572-1.491-3.196-2.123-4.873
				c-11.045-0.093-45.079,1.474-56.732,4.356c-0.07,0.018-0.139,0.023-0.209,0.023c-0.389,0-0.748-0.267-0.847-0.662
				c-0.11-0.464,0.174-0.939,0.638-1.056c11.55-2.854,44.76-4.438,56.524-4.409c-2.645-7.785-3.817-16.701-3.817-26.661
				c0-17.681,5.511-24.352,12.907-33.779c-5.656-20.158,2.031-33.935,2.031-33.935s11.892-2.465,34.37,13.632
				c12.182-5.221,44.667-5.656,60.039-1.16c9.427-6.236,26.684-15.082,33.646-12.605c1.885,3.034,5.945,11.88,2.465,31.313
				c2.361,4.264,14.647,13.342,14.693,39.011c-0.197,9.467-1.183,17.46-3.01,24.218
				C259.079,127.525,276.319,129.945,288.193,132.131z"/>
			<path fill="#010101" d="M183.812,94.124c23.36,0,29.295,16.533,29.295,29.294c0,17.397-8.754,30.008-30.536,33.268
				c-2.675,0.4-5.546,0.661-8.62,0.771c-13.15,0.476-26.295,0.412-37.126-0.006c-1.572-0.058-3.115-0.156-4.629-0.29
				c-22.734-1.989-38.877-12.269-38.877-35.292c0-8.719,5.894-27.746,29.677-27.746c2.355,0,17.733,1.45,32.583,1.45
				C168.764,95.574,182.101,94.124,183.812,94.124z"/>
			<path fill="#010101" d="M185.988,220.148c0.093,7.06,10.441,10.441,10.053,12.716c-0.389,2.268-8.661,1.902-12.524,0.551
				c-10.952-3.817-9.855-12.931-9.855-12.931l-0.365-25.013c0,0,0.748-13.464-4.229-13.464c0,2.709,0,31.261,0,40.942
				c0,8.898,6.236,11.602,6.236,14.891c0,5.656-11.382-0.533-14.891-4.061c-5.343-5.365-4.734-16.747-4.606-25.744
				c0.122-8.689-0.081-27.699-0.081-27.699l-3.625,0.075c0,0,1.485,41.522-1.915,49.087c-4.397,9.717-17.664,13.059-17.664,8.632
				c0-2.976,3.266-2.03,5.076-8.701c1.543-5.673,1.015-48.002,1.015-48.002s-4.252,2.512-4.252,10.441
				c0,3.625-0.099,24.357-0.099,30.524c0,7.762-11.021,12.182-16.318,12.182c-2.68,0-6.016-0.134-6.016-1.555
				c0-3.591,10.076-5.696,10.076-13.162c0-6.474-0.139-23.128-0.139-23.128s-5.082,0.87-12.333,0.87
				c-18.273,0-24.05-11.66-26.8-18.187c-3.579-8.498-8.22-12.489-13.15-15.68c-3.028-1.96-3.724-4.27-0.221-4.931
				c16.173-3.045,20.309,18.343,31.11,21.754c7.709,2.431,17.623,1.38,22.554-1.811c0.65-6.531,5.36-12.182,9.282-15.157
				c-0.25-0.023-0.499-0.047-0.743-0.075l0.632-6.353c1.514,0.134,3.057,0.232,4.629,0.29c10.831,0.418,23.976,0.481,37.126,0.006
				c3.074-0.11,5.945-0.371,8.62-0.771l0.823,5.743c-2.703,0.406-5.534,0.76-8.48,1.062c8.753,5.511,11.266,12.426,11.266,31.133
				C186.179,213.332,185.929,215.844,185.988,220.148z"/>
		</g>
		<g>
		</g>
	</g>
</g>
<g id="Layer_6">
	<path fill="#010101" d="M133.344,123.273c0-10.225-5.562-18.514-12.423-18.514c-6.861,0-12.423,8.289-12.423,18.514
		c0,10.226,5.562,17.354,12.423,17.354C127.782,140.627,133.344,133.499,133.344,123.273z"/>
	<path fill="#010101" d="M200.49,123.273c0-10.225-5.562-18.514-12.424-18.514s-12.424,8.289-12.424,18.514
		c0,10.226,5.562,17.354,12.424,17.354S200.49,133.499,200.49,123.273z"/>
	<g>
		<path fill="#010101" d="M153.599,151.746c-4.441,0-7.687-3.815-7.687-5.8c0-0.48,0.39-0.871,0.871-0.871s0.87,0.39,0.87,0.871
			c0,0.981,2.467,4.061,5.946,4.061c3.016,0,5.27-2.144,5.27-4.061c0-0.48,0.389-0.871,0.869-0.871s0.87,0.39,0.87,0.871
			C160.608,148.689,157.729,151.746,153.599,151.746z"/>
	</g>
	<circle fill="#010101" cx="153.502" cy="138.742" r="2.997"/>
	<ellipse fill="#010101" cx="120.921" cy="123.273" rx="8.17" ry="11.988"/>
	<ellipse fill="#010101" cx="188.066" cy="123.273" rx="8.17" ry="11.988"/>
</g>
<g id="Suckers">
	<path fill="#010101" d="M76.616,161.005c0,0.719-0.876,1.303-1.958,1.303s-1.958-0.584-1.958-1.303
		c0-0.723,0.877-1.307,1.958-1.307S76.616,160.282,76.616,161.005z"/>
	<ellipse fill="#010101" cx="80.75" cy="164.315" rx="1.958" ry="1.305"/>
	<ellipse fill="#010101" cx="84.472" cy="168.737" rx="1.958" ry="1.305"/>
	<ellipse fill="#010101" cx="87.735" cy="173.743" rx="1.958" ry="1.303"/>
	<path fill="#010101" d="M93.415,178.456c0,0.721-0.876,1.303-1.958,1.303c-1.082,0-1.958-0.582-1.958-1.303
		c0-0.723,0.876-1.307,1.958-1.307C92.538,177.149,93.415,177.733,93.415,178.456z"/>
	<ellipse fill="#010101" cx="96.485" cy="182.468" rx="1.958" ry="1.303"/>
	<ellipse fill="#010101" cx="103.519" cy="185.077" rx="1.958" ry="1.307"/>
	<ellipse fill="#010101" cx="110.576" cy="185.077" rx="1.958" ry="1.307"/>
	<ellipse fill="#010101" cx="117.658" cy="183.966" rx="1.958" ry="1.305"/>
</g>
</svg>
