<?xml version="1.0" encoding="utf-8"?>
<!-- Generator: Adobe Illustrator 16.0.0, SVG Export Plug-In . SVG Version: 6.00 Build 0)  -->
<!DOCTYPE svg PUBLIC "-//W3C//DTD SVG 1.1//EN" "http://www.w3.org/Graphics/SVG/1.1/DTD/svg11.dtd">
<svg version="1.1" id="Layer_1" xmlns="http://www.w3.org/2000/svg" xmlns:xlink="http://www.w3.org/1999/xlink" x="0px" y="0px"
	 width="306px" height="306px" viewBox="0 0 306 306" enable-background="new 0 0 306 306" xml:space="preserve">
<g>
	<g>
		<path fill="#007BB6" d="M261.78,30.002H52.16C42.137,30.002,34,37.947,34,47.726v210.517c0,9.796,8.137,17.75,18.16,17.75h209.62
			c10.036,0,18.221-7.954,18.221-17.75V47.726C280,37.947,271.816,30.002,261.78,30.002z"/>
		<path fill="#FFFFFF" d="M70.46,122.226h36.501v117.389H70.46V122.226z M88.713,63.867c11.664,0,21.144,9.482,21.144,21.148
			c0,11.682-9.48,21.162-21.144,21.162c-11.695,0-21.148-9.48-21.148-21.162C67.565,73.349,77.018,63.867,88.713,63.867"/>
		<path fill="#FFFFFF" d="M129.845,122.226h35.002v16.038h0.498c4.871-9.227,16.775-18.963,34.524-18.963
			c36.918,0,43.742,24.307,43.742,55.926v64.389h-36.443v-57.084c0-13.616-0.268-31.127-18.967-31.127
			c-18.986,0-21.883,14.828-21.883,30.145v58.066h-36.474V122.226z"/>
	</g>
</g>
</svg>
