<?xml version="1.0" encoding="utf-8"?>
<!-- Generator: Adobe Illustrator 16.0.0, SVG Export Plug-In . SVG Version: 6.00 Build 0)  -->
<!DOCTYPE svg PUBLIC "-//W3C//DTD SVG 1.1//EN" "http://www.w3.org/Graphics/SVG/1.1/DTD/svg11.dtd">
<svg version="1.1" id="Layer_1" xmlns="http://www.w3.org/2000/svg" xmlns:xlink="http://www.w3.org/1999/xlink" x="0px" y="0px"
	 width="306px" height="306px" viewBox="0 0 306 306" enable-background="new 0 0 306 306" xml:space="preserve">
<g>
	<path fill="#010101" d="M262.176,30H52.534c-10.015,0-18.156,7.943-18.156,17.74v210.512c0,9.798,8.141,17.752,18.156,17.752
		h209.642c10.037,0,18.197-7.954,18.197-17.752V47.74C280.374,37.943,272.211,30,262.176,30z M107.334,239.621H70.836V122.223
		h36.499L107.334,239.621L107.334,239.621z M89.085,106.184c-11.691,0-21.145-9.48-21.145-21.154
		c0-11.685,9.454-21.165,21.145-21.165c11.666,0,21.146,9.48,21.146,21.165C110.231,96.704,100.75,106.184,89.085,106.184z
		 M244.008,239.621h-36.473v-57.092c0-13.619-0.24-31.129-18.961-31.129c-18.988,0-21.885,14.842-21.885,30.148v58.071h-36.47
		V122.223h34.995v16.054h0.502c4.871-9.234,16.771-18.961,34.523-18.961c36.947,0,43.768,24.306,43.768,55.917V239.621
		L244.008,239.621z"/>
</g>
</svg>
