<?xml version="1.0" encoding="utf-8"?>
<!-- Generator: Adobe Illustrator 16.0.0, SVG Export Plug-In . SVG Version: 6.00 Build 0)  -->
<!DOCTYPE svg PUBLIC "-//W3C//DTD SVG 1.1//EN" "http://www.w3.org/Graphics/SVG/1.1/DTD/svg11.dtd">
<svg version="1.1" xmlns="http://www.w3.org/2000/svg" xmlns:xlink="http://www.w3.org/1999/xlink" x="0px" y="0px" width="306px"
	 height="306px" viewBox="0 0 306 306" enable-background="new 0 0 306 306" xml:space="preserve">
<g id="Layer_1">
</g>
<g id="Twitter_Blud">
	<g>
		<path fill="#439CD6" d="M109.402,255.084c94.702,0,146.522-78.535,146.522-146.523c0-2.209,0-4.418-0.1-6.628
			c10.043-7.231,18.779-16.37,25.709-26.713c-9.24,4.117-19.182,6.829-29.627,8.134c10.646-6.327,18.781-16.47,22.697-28.521
			c-9.941,5.925-20.988,10.143-32.738,12.453c-9.441-10.042-22.797-16.269-37.561-16.269c-28.42,0-51.519,23.098-51.519,51.519
			c0,4.017,0.502,7.934,1.306,11.75c-42.782-2.109-80.743-22.697-106.151-53.829c-4.419,7.632-6.929,16.47-6.929,25.91
			c0,17.876,9.139,33.643,22.897,42.882c-8.436-0.301-16.37-2.611-23.299-6.427c0,0.201,0,0.402,0,0.703
			c0,24.906,17.775,45.793,41.275,50.514c-4.318,1.205-8.838,1.809-13.558,1.809c-3.314,0-6.528-0.303-9.641-0.904
			c6.528,20.486,25.609,35.35,48.104,35.752c-17.675,13.859-39.87,22.094-63.972,22.094c-4.118,0-8.235-0.201-12.252-0.703
			C53.264,246.547,80.379,255.084,109.402,255.084"/>
	</g>
</g>
</svg>
